<svg xmlns="http://www.w3.org/2000/svg" viewBox="0 0 1024 1024">
  <path d="M814.7 61.59c2.6-4 7-6 11.25-7.79 1.92-.15 4-.56 5.74.46 5.1 1.51 10.67 1.92 15.32 4.71 3.36 2.71 5.43 6.62 8.57 9.56 4.39 8.4 7.73 17.77 7.13 27.44-.48 4.29-.2 8.62-.64 12.91a182.13 182.13 0 0 0-3.58 25c-.5 2.71-.39 6.56-3.7 7.41-.76-5.77.57-11.54.71-17.31.57-5.7 1.5-11.37 2.41-17 0-6.27.51-12.57-.1-18.83a81.55 81.55 0 0 0-5.42-15.64c-2.14-3.42-5.19-6.12-7.68-9.27-1.93-2.84-5.83-2.17-8.71-3.26-4.55-.9-9.85-3.27-13.91.15-5.5 5.23-9.43 11.88-14.8 17.24-2 4.64-1 9.81-1.57 14.71.56 7 2.05 13.86 2.4 20.86a31.71 31.71 0 0 0 4 13.22c1.23 7 2.38 14.3 6.62 20.24 2.34 2.55.69 7.46 4.86 8.3 1.11 4.84 5.07 8.28 7 12.78 3.32 5.87 6.67 11.85 8.26 18.47l2.21-.42c-3.59 4.32 2 8.75 1 13.4-.88 6.72-2.31 13.52-5.57 19.53-2.07 3.82-3.11 8.12-5.19 11.92-4 3.85-9.45 5.62-14.44 7.81-3.54.25-8 1.57-10.72-1.49-1-1.29-2.49-1.64-4-1.92l2.44-.66c-1.57-4.27-6-7.09-6.22-11.83a62.55 62.55 0 0 1-2-18.17c1.1-7.34.55-14.76.83-22.14 1.25-.31 2.71-1.36 3.83-.15 1 4.09-.18 8.51 1.71 12.41-.45 4.25.78 8.39 1 12.62-.49 1.32-1.94 2-2.86 3 2.32 2.73.68 7.13 3.93 9.15 1.54 1.81 2.27 4.22 3.6 6.2-.92.72-1.83 1.44-2.75 2.14 2.19 1.64 2.78 4.27 3.82 6.64 1.54 1.07 3.7.55 5.46.29 4.59-1.8 10.07-2.87 13-7.18 4-9.24 9.3-18.4 9.57-28.69-1.84-4.49-2-9.46-4.07-13.88A163.87 163.87 0 0 0 823 164.84c-1.86-4-5.62-6.66-7.2-10.79-3.33-7.62-6-15.51-9-23.28.2-6.53-3.8-12.27-3.3-18.77-.27-8.39-3.33-16.58-2-25-.57-4.73 1.11-9.13 2-13.68 4.79-1.81 7-6.9 10.48-10.28a23 23 0 0 1-1.07-4.53l1.83 3.13zM714.49 73.92c.55-2.88-.57-6.11 1.3-8.62 3 1.15 6 2.2 9.25 2 4.76-.3 8.85 2.55 13.44 3.27 2.73 1.55 5.51 3.06 8.12 4.81 5.6 6.37 7.18 15.21 7.17 23.48-1.87 6.17-3.78 12.43-4.15 18.92-1.15 4.83-5.87 7.38-8.7 11.13-2.63 3.46-7.16 4.49-10.89 6.37.29.62.86 1.85 1.14 2.47l3.38-1.24c-1 1-3.42 1.55-2.7 3.41a70.31 70.31 0 0 0 7.34 16.9c.84 2.22 1.16 4.6 2.08 6.79 1.58 4.37 4.43 8.2 5.51 12.76.87 3.75 2.63 7.19 4.14 10.71.58 1.76 2.54 2.24 4 3.09l-2.24.81c2.55 6.23 8.37 10.71 9.49 17.63l2.67-.39-1.35 1.78c2.73 4 3.23 9.27 6.79 12.67 2.73 3.12 4.15 7.11 6.82 10.28 3 3.79 5 8.24 7.62 12.31 4.53 7.74 3.53 17.29 1 25.54l-2.59.1c-.4-5.19 1.76-10.29.52-15.44a19.28 19.28 0 0 0-4.15-10c-2.92-3.56-4.26-8.14-7.43-11.52-2.69-4.28-5.6-8.4-8.48-12.56-1.9-4.34-4.66-8.29-6-12.85s-4.79-7.83-7.91-11.15c-1.55-3.05-1.92-6.53-3.47-9.57-3.51-6.53-4.69-14.08-8.8-20.33-1.15-7.22-5.14-13.41-7.82-20.08-2.07-3.56-1.69-8.24-4.94-11.13a22.91 22.91 0 0 1 .72 5.65c-.13 5.51 1.78 10.77 2.73 16.13.19 7.7-2.4 15.49-.33 23.1 1.36 4.48.38 9.25 1.27 13.82.08 7 1.4 14 .6 21 .05 5.66-.25 11.37.64 17a141.79 141.79 0 0 1-2.28 32.37c3.55.07 6.74 1.71 10.05 2.79 2.08-1.14 4.51-.51 6.74-.25 2.36 1 1.79 4.09 2.48 6.13l-2 1.46c5.16 3.17 10.07 6.74 15 10.19 4.58 4.23 7.85 10.24 13.44 13.24.19 3.25 3 5.08 5 7.28 3.44 3.26 5.76 7.72 10 10.1.66 2.41.69 5.38 3 6.94-1 3.23.67 6.47 1.3 9.63 1.57 5.2 2.56 10.54 4 15.77l3.26-.36-2.42 1a103.14 103.14 0 0 1 2.6 20.69c-.2 5.37 1.44 10.62.64 16 .25 13-.73 26-1.54 38.92-.71 6.12-3.12 11.85-4.39 17.85a68 68 0 0 0-7.4 16.2c-2 2.94-4.34 5.69-6.32 8.67-2.28 2.37-5.11 4.15-7.36 6.57a161 161 0 0 0-22.47 11.55c-3.88 2.28-8.44 3-12.2 5.54a31.92 31.92 0 0 1-4.69 0c-1.31-4.65-.91-9.52-.74-14.28.78-12-1.43-24-.3-36 .62-6 .46-12 1-18 .61-8.69 2.75-17.23 2.74-26s1.57-17.33 1.31-26c.33-10.5 3.28-21 1.33-31.49-.92-3.94-.6-8-1.66-12 .46-5.48-.41-10.92-1.13-16.34-.72-3.79.87-7.47.89-11.24.19-7.55.86-15.06 1.61-22.57-2.86-3.23-5.75-6.89-10-8.31a42.51 42.51 0 0 0-4.78.78c.69-2.58-.28-4.8-1.89-6.78 2.34-3.33 1.76-7.64 2.54-11.46-.08-7.24 1.14-14.52-.13-21.71-.74-8.15.52-16.34-.32-24.48-.69-8.34-.5-16.78-2.06-25-1.53-7.08 0-14.31.5-21.41-.43-4.09-2.23-7.93-2.55-12-.29-4.83-.68-9.65-.9-14.49-1.72-2.44-3.79-4.76-5.73-7.06-1.45-1.74-5.73-2.67-3.54-5.45 2.85-1.44 6.06 1.59 9.08 1.94.84-8.24 0-16.55-.32-24.79-2.18-7.64-3.76-15.46-5.34-23.23z" fill="#101010"/>
  <path d="M719.18 71.14c3.47.37 7.15-.35 10.45 1.09 4.19 1.76 9.08 2.36 12.33 5.85 5.19 4 6.63 10.77 7.2 16.92.45 2.17-.24 4.31-.8 6.39a86.8 86.8 0 0 0-3.15 14.52c-.1 2.43-2.21 4-3.71 5.6-2 2-3.39 4.54-5.52 6.4-2.71 1.64-6 1.07-9 1.85-1-1.29-2.52-2.27-3-3.84.44-4.64 1-9.29.64-14-.59-7.42.42-15.16-2.37-22.25-1.19-6.15-3.59-12.21-3.13-18.57z" fill="#fff"/>
  <path d="M491.91 76.65c8.58 1.87 18-.12 25.88 4.44 4.46 2.08 6.71 6.86 7.83 11.4 1 6.69 1 14.34-3.06 20-3.47 2.89-5.85 7.29-10.37 8.67-3.43 1.41-7 2.5-10.49 3.68 3.52 7.31 7.49 14.43 10.48 22 1.19 2.09 2.49 4.18 2.55 6.66 2.38 4.26 4 8.89 6.67 13 2 5.66 6.66 9.95 8.33 15.75.53 1.95 1.9 3.43 3.07 5 .26 1.67.25 3.38.64 5 .9.58 1.83 1.14 2.77 1.68-.78 4.09 1.54 7.69 2.58 11.49 2 5.25 5.07 10 8 14.79a20.28 20.28 0 0 0 5.55 5.83c-.17 7 3.57 13.26 6.73 19.24a57.15 57.15 0 0 0 5.15 8.56c.77-.27 1.55-.54 2.34-.8-.4 1.22-1.16 2.39-1 3.72 2.73 5.07 2.91 11 4.22 16.45.13 1.52.83 4.14-1.59 3.77-3.56-6-3-13.47-6.73-19.35-1.8-3-3.25-6.59-6.45-8.35l.82-1.27c-3.11-3.33-4.3-7.82-6.1-11.89-1.35-5.64-5.42-10-7.71-15.16-4.9-6.53-7.83-14.18-10.11-21.94-3.82-5.5-3-13.37-8.67-17.76-.49-6.37-6.86-10.16-8.17-16.29-.95-4.23-3.59-7.72-5.45-11.55-1.63-6.76-5.1-12.85-8.39-18.9.27 5.46.54 10.92.93 16.38.43 4.83-1.29 9.59-.73 14.43a69.68 69.68 0 0 1 .15 17.73c-1.12 6.17 1 12.21 2.07 18.22.66 8 2.79 15.7 4.42 23.5a114.37 114.37 0 0 1 4.25 16.22c.27 3.68 0 7.39.6 11-1.93 1-4 .33-5.89-.34 1.07-5.21 3.23-12.31-1.57-16.27 1.14-3.45-1.1-6.66-1.67-10-1-5.57-2.35-11-3.44-16.59-.72-7.66-3.09-15.08-3.42-22.78 2.41-10.6-1-21.55 1.46-32.16-.52-8-1.81-16-1-24 .79-4-3.62-5.34-6.23-7.1-2.89-1.17-3.66-4.74-3.08-7.51 3.57-1 5.25 2.25 7.4 4.38-.32-6.19-3.06-11.88-3.92-18 .2-6.93-1-13.82-.68-20.75a8.77 8.77 0 0 1 1-4.33zM641.79 77l3.41-.83c1.5 3 2.62 6.23 5.08 8.59 4 4.09 6.68 9.4 11.57 12.51 3.15 3.27 6.73 6.6 11.39 7.38a67.21 67.21 0 0 0 14.93 1c2.45 2.68 5.53 7.38 1.77 10.36-1.52-2.17-1.67-6.56-5.19-6.21-6.47-.13-13.23-.12-19.09-3.21-3.38-2.28-6.16-5.3-9.33-7.84-3.36-2.77-5.12-7.28-9.2-9.18 1 12.17-.68 24.32-.25 36.51-.21 8 .57 16.11-.72 24.07-.41 5.24.45 10.51-.28 15.74-1.45 6.93-.49 14-.7 21 .5 3.82 4.9 4.29 7.93 4.89 5.18.5 9.25 4.58 14.5 4.62 4.32 1 8.93-1.56 12.9 1.08L681 201c-6.64-.88-13.35-.29-20-.79-2.58.36-4.06-2.25-6.42-2.7-3.33-.74-6.22-2.59-9.39-3.74-.2 8.75-.07 17.59 1.72 26.17-.41 9.58-.61 19.25.79 28.78 2.3-.35 4.57-.87 6.85-1.38 5.29-.64 10.48 1.68 15.78.91 2.94 0 5.79-1.18 8.74-.51 1.58.35 2.67-1.06 3.87-1.82 1.25.93 3 2 2.74 3.81-.7 1.37-1.54 2.66-2.3 4l-1.38-1.81c-12.26 2.38-24.68-.78-37 .76-2.15.55-2-2.34-2.05-3.66-.18-5.12-.08-10.27-.74-15.36-.92-5.48 1.58-11-.35-16.41-.72-8.54-1.06-17.15-1.63-25.72-.32-2.81-5-2.51-4.79-5.53s3.73-1.65 5.55-1.27c-.1-5.23-.45-10.47-.15-15.69.64-3.91 1.61-7.89.9-11.86-1.11-5.41 1.35-10.75.8-16.16-.37-4.54.81-9.08-.06-13.59-.54-12.84 1.71-25.67.41-38.51-.11-4-2.06-7.91-1.1-12z" fill="#101010"/>
  <path d="M495.73 81.16c3.1.24 6.12 1.38 9.26 1.1 4.46-.2 9.51.66 12.59 4.21 4.81 4.21 4.08 11.35 3.74 17.11-.56 6.69-6.56 10.66-11.57 14.13-2.6 1.78-5.79 1.78-8.78 2.22-2-3.44-2.35-7.47-3.56-11.19-1.73-5.48-.73-11.31-2-16.86-.72-3.55-.21-7.18.31-10.72z" fill="#fff"/>
  <path d="M444.42 86.31c4.73-1.11 8.89 2.06 12.45 4.73a90.59 90.59 0 0 0 8.38 11.5 17.53 17.53 0 0 0 3.32 6.93c1.46 7 1.11 14.28 2.94 21.25 2.1 7 .4 14.58 3.14 21.43 3 8.58 2.23 17.72 3.38 26.59.86-.2 1.72-.39 2.59-.57-.53 1.28-1.66 2.43-1.53 3.9 1.22 11.22 2.27 22.48 2.56 33.78.11 5.2 2.32 10.39.78 15.55-.32 4.69-1.15 9.91-5 13-1.28 1.8-3 .3-4.48-.34 1.69-1.58 3.51-3.12 4.32-5.36-4.69 2.26-9.65 5.52-15.09 4.53a11.25 11.25 0 0 1-4.19-7.35c-1-9.36-7.26-17.3-8.22-26.66-1.22-3.94-3.57-7.5-4.22-11.63a106.34 106.34 0 0 0-1.83-11.23c-1.56-5.72-.61-11.71-1.57-17.51-.44-3.62-1.81-7.25-.95-10.92.66-2.73-.39-5.42-.62-8.12-.4-9.34-1.6-18.62-2.69-27.9-.5-6 1.11-11.95.5-17.95-.32-6.27.77-13.66 6.08-17.69zM348.27 90a16.66 16.66 0 0 0 4.5-1.84c5.46 4.33 12.62 5.64 18.17 9.88 1.17-.36 2.34-.71 3.53-1 2 3.1 5.44 4.73 8.83 5.89a77.61 77.61 0 0 1 10.12 8.72c2.28 2.11 2.83 5.27 3.86 8.06 4.57 8.23 8.73 17 9.85 26.43.58 8.3 2.09 16.58 1 24.91-1.06 6.15-5.93 10.86-11 14.13-2.63 2-6.71 1.8-8.14 5.24 11.06 5.48 22.09 11.26 32.17 18.43 5.77 6.22 6 15.61 3.86 23.39-1.42 2.38-3.77 4-5.76 5.82l3 .93c-1.65.27-3.31.3-5 .5-5.33 3-10.73 6-16.75 7.29-3.55.87-7.38 3.52-11 1.63-1.42-3.53-1.52-7.45-2.9-11-2.06-5.81-.93-12-1.91-18-.91-4.8-.4-9.71-1.33-14.5a56.69 56.69 0 0 0-.79-12.41c-1.15-.34-2.3-.7-3.43-1.07a7.34 7.34 0 0 1 3.29-6.38c-.36-7.41-2.85-14.5-3.3-21.9-.41-6.64-1.06-13.27-1.35-19.92-1.76-10.86-2.08-21.87-3.81-32.73-1.39.44-2.78.85-4.19 1.2-.11-3.17-.26-6.51 1.54-9.29-5.1-1.9-9.19-5.67-14.32-7.49-3.3-1-5.39-4.27-8.84-4.89z" fill="#101010"/>
  <path d="M442.31 108c-.11-6.12-.27-12.77 3.93-17.71 3.61.62 6.17 3.46 8.71 5.86 1.2.9 1.13 2.52 1.44 3.84 2.88.25 4.27 3 5.12 5.43 1.18 3.52 3.7 6.66 3.63 10.52 0 6.7 1.76 13.2 3.09 19.72.44 3.76.08 7.57.48 11.34 1.2 5.71 3.56 11.15 4.19 17 .32 5.25-.24 10.59 1.28 15.7 1.88 6.34 1.37 13 2.49 19.47.9 4.89.6 9.88.93 14.82-.09 5 1.42 9.93.9 14.94a26.47 26.47 0 0 1-5.2 7.41c-2.76 1.84-6.09 2.52-9.19 3.59-3.22-4.91-3.1-11.15-5.58-16.39a50.73 50.73 0 0 1-4.35-13.64c-.48-3.49-2.64-6.41-3.48-9.8-2.06-5.54-1.73-11.58-3.41-17.23-.78-5.84-.44-11.8-1.69-17.6-1.2-4.87.52-9.91-.8-14.76-.34-3.56-1.44-7.3-.1-10.75-2.1-5.33-2-11.13-2.74-16.72-.77-5 .58-10 .35-15z" fill="#fff"/>
  <path d="M157 93.29l2.41-1.49c2.12 3.41 1.68 8.24 5 10.86-.57 3.81 1.66 7.31 2.37 11 1.27 2.76.47 5.82 1.12 8.71 1.11 5.28.8 10.76 2.19 16 .26 6.87.33 13.77 1.17 20.62-.28 7.22 1.31 14.31 1.59 21.51.82 4.49-.91 8.95-.08 13.44 2.42 11.79 5.19 23.51 8.05 35.19.65 5.64 1 11.42 3.2 16.74 1.27 3 1.26 6.39 1.38 9.62-1.7-.43-4.07-.38-4.56-2.5-5.12-9.24-6.82-19.81-11.31-29.29-2-9.59-6.53-18.45-8.29-28.1-2.3-7-3.64-14.26-5.69-21.33-2.24-7.45-1.91-15.53-5.11-22.71-1.86-4.83-2.64-10.1-5.47-14.51-1.31-3.26-1.69-6.9-3.8-9.83a30 30 0 0 0-4-8.46 51.57 51.57 0 0 0 .69 12.28c-.15 4.67-.73 9.37.19 14 1.24 13.34 1.33 26.73 2.83 40.07.36 5.08 1.74 10.09 1.18 15.21l1.69.59-1.84.94a43.81 43.81 0 0 0 1 10.46c1.5 6.91 2.36 14 4 20.83 1.71 5.47 2.14 11.22 3.09 16.84.54 1.79-.38 3.45-.94 5.1-1.29-1.17-2.53-2.36-3.79-3.53.76-6.77-.9-13.48-2.88-19.89-1.24-7.35-2.86-14.63-4.11-22-1-6.42.11-13-1-19.35-1.36-9-1.61-18.2-2.57-27.29.16-10.71-1.57-21.35-1.12-32.06-.71-6.6-1.74-13.21-.88-19.85l3.28-.22a41.57 41.57 0 0 0 6.39 7.8c3.49 9.33 8.31 18.21 10.74 27.94.69 3.88 3.06 7.24 3.47 11.19 1.47 11.15 4.6 22 7.5 32.79 2.21 5.86 2.25 12.39 5.52 17.87a40.21 40.21 0 0 0 4.39 12.3c-.64-4.42-2.26-8.63-2.79-13.06-.85-5.6-2.82-11-3-16.72.82-9.39.54-19.09-1.91-28.23 1.66-4.79-.51-9.81-.23-14.71.43-7.11-1.32-14.07-1.5-21.15-.55-4.62-1.38-9.2-2-13.8-1.5-6.7-4.72-13-5.56-19.82zM577.23 92.21c3.69-.35 8 .11 10.33 3.3a8.54 8.54 0 0 1 4.75 2.49l2.27-.42v2.6c1.35.12 2.72.21 4.09.28 2.92 4.94 3.3 10.74 5.08 16.11 2.6 14.27 3.68 28.76 5.53 43.14 1.84 4 .94 8.52 2.42 12.64 1.48 4.95-.13 10.14 1 15.13.9 4.78-.13 9.61-.28 14.41-.63 5.63 1 11.37-.33 16.94-1.86 7.2-1.19 14.92-4.41 21.78-1 4.25-5 6.34-8.22 8.69-2.92 3.74-7.38 5.62-11.5 7.75-3 1.78-6.76.91-9.45-1.11 2.1-1.59 4.78-1.43 7.21-2.08 2.81-1.38 5.25-3.42 8.16-4.61-1.42-12.44-5.24-24.51-6.26-37l-2.24-.84 1.42-1c-.71-6.13-2.15-12.14-3.36-18.18-1.4-10 1.12-20.47-1.72-30.27.65-3.77-1.08-7.31-1.43-11-1-6.31-.46-12.71-1.11-19 1.45-8.28.58-16.72.76-25.07-.48-5-2.65-9.68-2.7-14.72zM234.64 97.44a28.87 28.87 0 0 0 6.09-.18c-.07 1.08-.15 2.16-.22 3.25l1.57 1.5 2-1.73-.63 3.41q1.42 2 2.71 4.17l2.26-.16c-.47.65-.95 1.29-1.41 2 2.37 4.51 4.7 9.07 6.68 13.77a156.42 156.42 0 0 1 2.2 20.61c0 2.83 1.73 5.39 1.38 8.23-.24 9 2.39 17.78 2.75 26.75.25 4.66 1.73 9.13 2.17 13.77 1.28 5.66 1.22 11.48 1.54 17.24 1.09 9.93 7.44 18.77 6.86 29-.1 4.16.56 8.82-2.31 12.27-2.62 3.2-7.27 2.92-11 2.62-3.84-2.14-5.68-6.35-7.07-10.3-2.74-5.7-3.51-12.09-6.1-17.85-1.45-3.57-1.9-7.42-2.9-11.12-3.05-8.13-3.16-16.94-4.06-25.48-3.37-17-5.67-34.38-4.75-51.76 1.48-10.76-1.09-21.76 1.55-32.37.35-2.51.48-5 .7-7.56z" fill="#101010"/>
  <path d="M582.87 99.24c5.25.51 9.84 3.91 13.58 7.28 3.35 12.53 6 25.3 6.59 38.28 2 8.84 1.61 18 4.16 26.76 1.89 6 .36 12.36 1.47 18.49.07 7.67-1.11 15.34-.3 23 .51 3.43-1.19 6.6-1.69 9.92-.25 3.83.07 7.79-1.18 11.48-.26 1.42-1.92 1.64-3 2.26.44.79 1.79 1.75.87 2.68-1.28 2.45-3.52 4.07-5.71 5.63-2.07-4.33-1.64-9.22-2.44-13.83-2.6-8.22-3.25-16.87-5.22-25.26-.45-6-2.9-11.78-2.89-17.89 0-8 .56-16.13-.37-24.15-.07-7.08-3.59-13.74-2.88-20.9.43-3.65-.44-7.26-.49-10.9 1.44-9 .82-18.09 1.06-27.13a25.15 25.15 0 0 1-1.61-5.74z" fill="#fff"/>
  <path d="M601.09 101.39c3.35.14-1.57 2.91 0 0zM387.87 103.51c3.35.12-1.53 2.94 0 0z" fill="#101010"/>
  <path d="M238.08 104.08c4.66 5.11 7.15 11.63 10.29 17.68 3.18 8.75 2.61 18.22 3.92 27.32.85 11 3.24 21.89 4.15 32.92 3.2 18.43 4 37.19 3.78 55.86 0 3 3.6 1.61 5.27 1a53.1 53.1 0 0 0-1.13-5.3c3.29 2.88 2 7.45 1.92 11.27 0 2-1.6 3.45-2.57 5-4.36.28-8.85-3.15-9.08-7.64-.42-3.69-2.78-6.77-3.19-10.45 0-2.75-2.43-4.57-3.23-7-.23-8.11-5.89-15.25-5-23.48-2-6.36-1.47-13.11-3-19.55a263.26 263.26 0 0 1-3.79-28.8c-.25-10 .71-20 .57-30-1-6.35.19-12.63 1-18.91zM377.49 105.42c3 1.61 6.47 2.67 9.05 5 3.07 3.53 6 7.29 7.19 11.93a119 119 0 0 1 7.77 17.14c.07 4.63 2.73 8.75 2.14 13.47 2.3 9 1.89 20.41-6.17 26.45-2.88 3.53-7.58 4.12-11.1 6.75.68-4.35-.95-8.57-1.09-12.9-2.14-10.31-2.82-20.86-3.27-31.36-.09-4.36-1.87-8.48-1.68-12.87-.64-7.92-1.76-15.78-2.84-23.64zM373 107.29c3.32.16-1.55 2.93 0 0z" fill="#fff"/>
  <path d="M704.78 172.69l1.77-.29c.34.44 1 1.31 1.39 1.74-1.18.28-2.36.53-3.53.76.1-.55.28-1.66.37-2.21zM403 194.2c3.35.12-1.57 2.93 0 0z" fill="#101010"/>
  <path d="M388.74 204.77c-1.62-3.22-1.46-7.06-1.35-10.59a228.77 228.77 0 0 1 24.4 13.09 45 45 0 0 1 7.27 5.6 23.93 23.93 0 0 1 3.34 9.13 76 76 0 0 1-1.32 8.75c-4.26 4.79-10.29 7.34-15.83 10.29-3.75 1.44-7.71 2.27-11.46 3.72-2-5.05-4.54-10.23-4.05-15.81-.65-7.59-1.37-15.17-1.55-22.79.13-.35.41-1 .55-1.41z" fill="#fff"/>
  <path d="M816.32 210.13l3.3-.32a5.78 5.78 0 0 1-3.19 3.41c0-.77-.08-2.32-.11-3.09zM814.18 214.64q2.43-.76 1.68 1.63-2.49.77-1.68-1.63zM833 230.16c3.35.13-1.55 2.92 0 0zM865.36 244.73q2.57-.78 1.71 1.56-2.59.75-1.71-1.56zM262.09 246.2c3.35.12-1.54 2.93 0 0zM705.21 256.07c.83-.37 1.67-.72 2.52-1.06 5.62 6.49 4.23 15.72 7.7 23.13-.3 2.67.43 5.26 1 7.85-.18 11 0 22 .18 33-.76 4.65-.16 9.32 0 14-.91 8.62.33 17.26.55 25.89a24.56 24.56 0 0 0 1.16 5.32c-1.81 7.17-.79 14.68-1.76 22a119 119 0 0 1-.82 15.9c-.48 4.29-1.52 8.56-1.06 12.9.72 9.76-.73 19.48-2.45 29.06-1 7.7-.46 15.68-3 23.13-1.45 5.36-2.15 10.91-4.1 16.13l-3.24.36c-.75-1.42-1.52-2.83-2.16-4.29-1.5-11-6.94-21.18-7.67-32.37-.4-9-6.28-16.56-7.4-25.4-1.47-10.71-2.59-21.62-6.35-31.81-.45-5.09-2.14-9.92-3.31-14.86-.9-7-3.22-13.66-4.59-20.55-1.9-5.42-3.55-10.92-5.18-16.42-.84 10.63 2 21 2.37 31.59.61 9.18 2.76 18.28 2.15 27.52-1.29 14.64 1.1 29.43-1.14 44-.67 12.48-1.19 25-2 37.42-2.09.79-4.12.6-5.3-1.5 2.5-4.9 1.74-10.57 2.23-15.87.55-6.38.63-12.78.74-19.18.61-6.6 1.52-13.23 1-19.87-1-14.47 1.37-29-1-43.4-.72-5.39-1-10.82-1.51-16.24-1.39-10.73-2.82-21.56-1.66-32.38.11-7.13 1.14-14.55-1.44-21.4-1.87-5.11-3.31-10.37-5.18-15.48.27-.49.79-1.47 1.05-2a22.11 22.11 0 0 1 4.49.78c1.53 2-.39 4.83 1.11 7a65.5 65.5 0 0 1 5.39 20.91c-.2 11.9 5.58 22.66 8.55 33.91 1.25 5.16 2.45 10.33 3.72 15.48 1.11 10.39 6.11 20 6.83 30.48a100 100 0 0 1 2.32 11.65c2.14 5.19 0 11.59 3.84 16.16.44 1.32.66 2.7 1 4.07.68-.18 1.36-.37 2.05-.54-1.37 4.14 1.4 8.17 1.48 12.37.16 5.92 2.33 11.45 3.16 17.26 1.44 4.28 2.57 8.67 4.26 12.88a77.18 77.18 0 0 1 2.15-10.6c1.68-7.39.75-15.14 2.57-22.49a176.94 176.94 0 0 0 2.07-22.27c-1.37-6.46.63-12.88 1.27-19.28.14-5.67-.23-11.37.71-17-.24-7.67 1.46-15.34.29-23a102.62 102.62 0 0 1-.56-23.95c.42-5-1.44-10-.15-15 .08-9.65-.83-19.39 0-29-.67-4.7-1-9.45-2.16-14.07s-1.1-9.61-2.83-14.15a53.65 53.65 0 0 1-1.87-6.7zM834 269c1.22-1.08 3.07-1 4.56-1.63 1.19 2.15 3.88 1.73 5.95 2.22 3 .61 6 .81 9.06 1.13 2.34.24 4.72 1.57 7 .51 3.68 2.62 8.29 4.35 10.7 8.43 5.13 6.33 5.81 14.77 7.51 22.44.51 2.82 3 5 2.74 8-.14 6.07 2.07 11.88 1.55 18a107.79 107.79 0 0 1-1 30.06c-.52 4.18.37 8.58-1.5 12.54-1.92 4.14-.2 10.17-4.71 12.82-1.85-5.48.32-11.11 1.09-16.56 1-5-.26-10.16 1.47-15a156.25 156.25 0 0 0-.55-30.35c-1.45-5.11-1.08-10.53-2.94-15.53-2.13-6.28-2.48-13.09-5.09-19.18-2.21-2.42-3-6.15-6.29-7.42-4.2-2.12-8.49-4.54-13.3-4.7-4.48-.22-9.11-2.36-13.49-.71-2.24 2.45-4.12 6-3.26 9.35h-1.62c-1.13 5.37-2.43 10.92-1.34 16.41.93 5 .71 10.2 1.15 15.28.92 5 3.61 9.77 3.22 15-.41 3.84 2.14 7.29 1.37 11.11-.34 3 1.61 5.45 2.29 8.22 1 4.61 3.48 8.75 4.33 13.41.69 3.66 3 6.62 4.42 10 1.72 6 4.86 11.43 8.17 16.65 3.28 3.62 4.13 8.58 6 12.94 1.9 3.2 3.58 6.81 6.88 8.82-1.48 5 3.87 8.58 5.2 13.06a57.68 57.68 0 0 0 4.07 10.07c1.22 4.21 2.13 8.51 3.3 12.75-1.1 4.45-3.61 8.42-5.57 12.54-6.12 7-13.87 13.76-23.57 14.36-3.35-.2-7.42-.38-9.54-3.39-3.63-4.6-7.19-9.41-9-15-2.23-2.83-2.08-6.6-1.8-10 1.2-4.39.28-8.92.29-13.38-.51-6.73-.78-13.47-.85-20.21a6.26 6.26 0 0 1 5.12-.07c.18 4.54.1 9.1.56 13.62 1.6 3.42 3.65 6.74 4.09 10.58.34 3.33 2.15 6.29 2.43 9.64.75 6 .94 12 1.21 18 .38 3.45 4.35 4.31 6.82 5.92 4.17-1.5 9.12-1.67 12.46-4.94A32.46 32.46 0 0 0 873 454c1.23-2.42 3.18-4.84 2.65-7.72-1-8.67-6.33-15.93-9-24.08a105.74 105.74 0 0 0-8.91-17c-2.65-4-3.06-9.1-6.06-12.92-3.2-4.45-5.12-9.61-7.66-14.43-2-5.53-5.18-10.67-6.42-16.48a115.06 115.06 0 0 1-5.17-15.61c-.62-3.7-.55-7.48-1.44-11.13-.85-3.4.16-7.06-1.4-10.3-3.23-8.78-2.22-18.25-3.78-27.32-.54-4.94.56-9.9 1.49-14.72 2.34-4.4 3.79-9.25 6.7-13.33z" fill="#101010"/>
  <path d="M836.06 276.11c3.34.09-1.54 2.94 0 0zM228.3 281.11c-.19-1.5.81-2.66 1.56-3.83a78.16 78.16 0 0 1 14.68 4.29c3.28 3.74 8 6.3 9.91 11.05 3.07 4.47 5.21 9.45 7.55 14.34a64.69 64.69 0 0 1 2.59 19.72c1 7.36.1 15.34-4.68 21.3-5.85 3.19-11.8 6.48-18.5 7.55 3.36 3.72 2.49 9.23 4.86 13.45 2 3 3.21 6.42 5.06 9.51 1.05-.12 2.1-.24 3.15-.38-.74 1.17-1.68 2.59-.4 3.79 3 3.83 4.77 8.36 7.81 12.13 2.65 3.24 4 7.29 6.45 10.68 1.82 2.54 3.37 5.27 5.1 7.88 3 4.56 3.55 10.08 4.51 15.3 1.49 5.18 4.09 10 6.37 14.81 1.48 4.83 3 9.67 4.56 14.46 2.53 5.37 5.73 10.39 8.18 15.79 1.73 3.83 5.9 5.44 8.24 8.78 4.88 6.16 11.74 11.52 13.34 19.62.67 2.14.45 4.4.37 6.6h-2.38c-1.85-11.37-11-19.58-19.2-26.81-2.72-3.86-5.6-7.65-7.43-12-1.42-3.77-4.25-6.76-5.63-10.53-2.17-12.34-10.12-22.88-11.64-35.39-.63-5.66-4.29-10.1-7.06-14.83-5.83-8.64-11-17.66-16.69-26.37a9 9 0 0 0-3.16-2.74c.06-2.69-1.77-4.81-3-7-1.76-2.78-2.1-6.11-3-9.19.21 7.06-.48 14.16.77 21.17a99.17 99.17 0 0 0 2.31 23c.24 11.86 5.09 23 5.35 34.87-.58 9 .48 18 .67 26.94 0 1.52 1 2.76 1.58 4.09-.58 1.22-1.15 2.44-1.75 3.65l-3.28-.17c-1.15-6.16-.12-12.45-1.32-18.59-.33-7.41.81-14.9-.63-22.24-1.26-5.32-2-10.74-3.26-16-.77-2.84.09-6.76-3.12-8.24l2.27-1.23c-.68-5.06-2.43-10-2.38-15.11a186 186 0 0 0-1.37-19c0-8.42.29-17-1.5-25.27-1.65-1.92-3.61-3.58-4.85-5.83 1.21-.68 2.44-1.32 3.67-2-.36-7.12-1.26-14.17-2.15-21.25a95 95 0 0 0-1.79-19.54c-1.44-6.94-.41-14-.75-21zM427.3 281.82c1.42-1.88 4.38-1 6.47-1.65 2 2.53 5.52 2.28 7.93 4.17 2.14 1.51 4.83 2.36 6.3 4.68 2.92 4.06 6.91 7.41 8.78 12.17 3.16 6.54 2.24 14 3 21-.25 7.56.6 15.33-1.78 22.66-.93 2.69-.68 5.65-1.76 8.28-3.76 6.3-8.28 12.32-14.78 16 2.22 2.68 3.63 5.9 5.72 8.67 2.84 3.92 3.52 8.88 6.11 12.93a53.91 53.91 0 0 1 5.71 14.52c.5 2.45 2.45 4.37 2.63 6.9.07 3.13 3.52 4.72 4.1 7.7 1 4.5 4.17 8.09 5 12.62 1.23 5 4.55 9 6.11 13.85 2 4 2.72 9.13 6.43 12.06-.52 3.41 1.87 6.17 3.41 9 1.49 3.32 3.13 6.6 3.88 10.2 2.33 3.63 3.2 7.89 5 11.77 2.78 6 3.43 12.67 5.52 18.91 1.57 9.61 3.92 19.13 3.94 28.93-1.38-.25-2.72-.93-2.88-2.45-2.82-8.76-2.71-18.2-5.86-26.88-1.36-3.2-.8-6.84-2.2-10-2.65-6.35-5.09-12.76-8.08-19-1-5.5-4.16-10.08-6.32-15.12l-2.75-.12 2.13-1c-3.62-7.4-6.08-15.32-10.38-22.37-2.06-4.71-2.8-9.94-5.65-14.31-4.46-6.88-6.45-14.91-9.5-22.43a33.08 33.08 0 0 0-5.05-12c-1.85-2.54-2.21-5.75-3.69-8.46-3.26-5.1-5.74-10.78-10.38-14.84-.27 6.61 0 13.22-.67 19.81.91 12.68-1 25.32-.94 38 1.31 13.61-.75 27.32 1.36 40.9 1.33 6.31.23 12.79 1.06 19.16.38 2.14-.24 5.81-3.18 5.13-1.32-1.08-1.35-2.86-1.57-4.38a108 108 0 0 0-.91-21.93c-.41-8.62-1.1-17.27-.41-25.89.41-4.68-.59-9.31-.53-14 0-11 1.37-22 .92-33-.47-8 1.35-16.06.18-24.07-1.35-9.25 0-18.62-.84-27.9.2-11.72-2-23.33-1.46-35 .32-3.86-.91-7.71-.11-11.54a31 31 0 0 0 0-11.6z" fill="#101010"/>
  <path d="M744.34 280.78c1.51 1.08 2.65 2.83 4.59 3.21 7.52 2.49 11.94 9.43 17.29 14.79 3.11 3.57 5.63 7.65 9.38 10.62 2.57 4.29 6.71 7.42 9.11 11.82 1.74 5.48 3.77 10.92 4.74 16.62 1.67 7.35 5.07 14.33 5.59 21.94 1.24 6.44 0 13.11 1.55 19.52.34 13.38-.42 26.8-1.4 40.17-.32 11.58-4.67 22.66-10.08 32.75-2 2.83-2.3 6.55-4.77 9.09-5.47 9.33-16.58 12.14-25.27 17.45.1-.86.31-2.6.41-3.46-4.08 5.15-10 10.54-16.94 10.27-.45-8.84.34-17.7-.27-26.54-.82-11 .16-22.06.95-33.05.08-9.41 2.79-18.57 2.68-28 .12-7.38 1.05-14.7 1.6-22-.92-11.08 2.85-21.92 1.62-33-.92-7.3-1.66-14.62-2.13-22-.51-7-1.7-14.17.31-21a62.6 62.6 0 0 1 1-19.16zM232.69 282.06c4.33 1.81 9.81 2.22 12.33 6.76 5.75 3.33 7.48 10.28 11.09 15.5-.62.82-1.25 1.63-1.86 2.46l2.63-1.45c3.13 8.15 3.34 17 3.61 25.65-.32 3.85-.2 8-2.08 11.45-2.17 3.36-6.16 4.61-9.39 6.66-2.94 1.74-6.48 1.59-9.69.84a29 29 0 0 1-2-12c-1.78-9.71-1.88-19.64-2.94-29.47-1.06-5.73-2.22-11.53-1.79-17.39.21-3 .12-6 .09-9zM432.45 285.85c4.29.61 7.34 3.7 11 5.71a28.17 28.17 0 0 1 11.23 20.35c.19 8 .79 16.08.48 24.12-.1 4.75-1.93 9.2-2.59 13.87-.4 3.2-3.25 5.18-4.95 7.7-2.45 3.48-6 6.78-10.49 6.93-1.27-2.25-3.36-4.22-3.44-7-.6-6.51.31-13-.49-19.56.48-6.72-1.33-13.32-1-20 0-3-.88-5.86-.72-8.83.9-7.75-.16-15.57 1-23.32z" fill="#fff"/>
  <path d="M751.14 286.1c3.35.15-1.59 2.9 0 0zM99.25 291.22c.9-.72 1.78-1.44 2.67-2.17 7.41 2.76 14.94 5.82 21 11.06 2.53 2.11 4.51 4.85 7.29 6.67a30.11 30.11 0 0 0 6.15 1.94c.24.82 0 1.83.69 2.48 6.39 6.19 14.33 10.36 21.95 14.8 3.2 1.76 5 5 7.22 7.79 2.07-6.7 1.38-13.93 3-20.72 1.07-3.55 5-4.18 8.17-4.65 4.26-3.3 8.93-6.39 14.59-6.12 2 3.26 5.87 5.23 6.81 9.09 2.38 5 5.35 9.9 6.17 15.51 3 9.78 3.88 20 5.31 30.07-.1 10 .47 20 .84 30-.78 7.64.35 15.33-.73 23 .08 8-1.85 15.92-1.88 23.95-1.07 7.26-1 14.64-2 21.92a82.73 82.73 0 0 0-2 16c-.57 2.73-1.7 5.32-2.21 8.07-2.74 5-8 9.48-14.15 8.3a18.33 18.33 0 0 1-8.55-7.75c-4.65-8.93-5.58-19.06-8.28-28.63-3-14.06-1.84-28.5-2.39-42.74.1-11-1.72-22-.88-33-.82-12.09-1.87-24.27-.52-36.35l-1.47 1.5c-2.91-3-4.19-6.92-6.42-10.31l-1.58 2.28c.13-.76.4-2.26.53-3-5.73-2.52-11-6-16.51-8.86-5.06-2.81-8.26-8.33-13.83-10.31-4.63-2.27-7.17-7.06-11.53-9.69-3-1.72-5.63-4.2-9.23-4.35a76.14 76.14 0 0 1 2.27 23c-.82 3.67.8 7.28.5 11a63.82 63.82 0 0 0 1.52 17 32.65 32.65 0 0 0 .45 16c3.75 1.08 9.11 1.9 9.4 6.81l2.61.61a26.46 26.46 0 0 0 1.71 4.08l4.18-1L129 377a19.85 19.85 0 0 1 5.43 4.53c7.68 6.14 16.58 10.6 24.08 17 2.57 2.15 5.94 4.68 5.66 8.43-3.93-1-6.3-4.5-9.49-6.69-7.23-5.68-15.89-9.13-22.94-15-6.69-4.91-12.23-11.33-19.4-15.57.26 5.07.45 10.19 2 15.06a56.53 56.53 0 0 1 2.43 13.24c1 7.35 1.69 14.74 2.71 22.1s-1.8 14.58-.77 21.9c.12 6 .61 12 .58 18 .43 6.34 2 12.56 2.24 18.92.66 4.94 1.43 9.89 1 14.9-1.52-.09-3.38.48-4.41-1 .52-11.71-2.73-23.13-3.19-34.77.18-9.35-1.64-18.74.13-28-.52-4.91.36-9.85-.45-14.73-1.38-6.12-1.28-12.45-2.39-18.62a123.48 123.48 0 0 1-4.06-28.47c-1.34-1-2.68-2-4-3.11 2.34-2.17 4.13-5.63 1.93-8.55 1.39-1.9.65-4.28.61-6.43-.32-3.06.22-6.2-.58-9.2-1.15-3.91.53-8-.28-11.92-1-5.22 0-10.49-.64-15.71 1-5-.72-9.87-2-14.61a17.43 17.43 0 0 0-4-7.42zM367.65 290.77c1.35.87 2.55 2.29 4.3 2.23 5.21.11 10.44 0 15.64.48 5.68 1.84 11.75 1.32 17.6.85.54.88 1.06 1.78 1.55 2.71a9 9 0 0 1-2 2.63c-3 3-4.51 7.21-7.91 9.86-.74-3.94 2-7.08 3.4-10.47-9.45-.09-18.85-3-28.3-1.14a54.61 54.61 0 0 1 .19 11.07c-1.32 11.83.29 23.69.54 35.52 1.27 8.72 1.53 17.5 2.47 26.24 5.52-.91 11 3.12 16.37.73 6.44-1.45 13-2.4 19.52-3.44.14 1.56.26 3.13.37 4.71-4.45-.17-8.81.89-13.19 1.49-4.91.68-9.74 2.89-14.77 1.83a49.16 49.16 0 0 0-7.71-1.17c-.05 3-.42 5.94 0 8.89 4.19 20.75-4.66 41.45-1.61 62.25 1 6.21.22 12.47.22 18.71 1 7.41.66 14.85.88 22.3-1.65-.11-4-.06-4.29-2.2-.32-4.29.63-8.62 0-12.92-1.18-9 .3-18-.91-26.92-2.59-16.42 3.12-32.61 2.53-49 .51-6.72-2.46-13.23-1.12-19.95-.94-.93-1.86-1.86-2.74-2.82 2.56-3.27 1.65-7.44 1.41-11.25-.65-5.07-.57-10.22-1.47-15.27-.75-10.54-1-21.11-1.18-31.67.54-6 1.21-12.24-.35-18.21-.68-2 .35-4 .59-6zM528.74 293.66a13.26 13.26 0 0 0 4-2.36c-.4 4.16-.7 8.32-1 12.49-1.45 6.65-.69 13.5-.58 20.24 1.38 14.17 2.56 28.39 2.68 42.63 1.32 11.4.45 22.89 1 34.32-.62 17.71 1.54 35.38 2.86 53-.57 5.7-1.65 11.35-2.16 17.06a144.26 144.26 0 0 1-1.57 19.9c-.53 4-.12 8.15-.87 12.17a2.25 2.25 0 0 1-2.11-2.24c-1.37-6.56-.27-13.26.21-19.84-.22-8.71 1.18-17.34 2-26-.42-7.35-1.22-14.67-2.08-22-.47-14.36-1.49-28.73-.64-43.1-.44-8-.13-16-1.15-23.88 0-7.72-.37-15.43-.9-23.13-.18-7.71-1.89-15.29-1.93-23-.23-4.34.42-8.67.2-13-.28-4.56 1.72-8.8 2.07-13.3zM568.29 305.31c9.57 3.55 19.82-1.73 29.35 1.94 5.25 2.21 12.59.55 16.12 6 2 3.35 5.8 5.42 6.84 9.35 1.24 4.51 2.9 9.06 2.36 13.82a3.75 3.75 0 0 1-2.54-2.78c-1.91-5.6-3.81-11.58-8.29-15.72-2.06-2-3.94-4.87-7.15-4.89-6.68-.4-13-3.65-19.76-2.82a70.4 70.4 0 0 1-13.53.68c-.31 7.37 4.71 13.69 4.12 21.09-.45 4.71 1 9.4-.07 14.05-.62 10.33-1.64 20.65-1.75 31 4.61 3.17 9.05 7.09 14.64 8.34 2 .31 3.11 2.24 4.64 3.41 2.59 2 6 2.48 8.75 4.23 1.95 1 3.66 2.77 6 2.73 1 3.92 6.54 4.3 7.18 8.4.15 2.09.49 5-2.19 5.56-1.83-7.75-9.93-10.87-16.2-14.36-5.53-1.71-9.71-5.93-15-8a36.06 36.06 0 0 1-7.52-4.51c.06 7.85 1.07 15.62 1.47 23.45.5 12.62 2.94 25.15 2.23 37.82-.7 8-.06 16-1 23.89 2.14 1.6 4.26 3.81 7.14 3.78a31.76 31.76 0 0 1 7.86 1.37c6 2 12-1.76 18.06-.91 6.79-.51 13.43 1.47 19.49 4.36 3.3 2.23 6.93 3.86 10.42 5.77a1.64 1.64 0 0 1-1.82 2.06c-7.34-2-13.72-6.56-21.31-7.8-3.4-.07-6.86-.6-10.21.22-5.25 1.33-10.78.36-16 1.65l-1.25-1.66c-4.17-.47-8.39-.89-12.19-2.83-.12 4-.27 8-.17 12l-3.66 1a30 30 0 0 0-2-5.65c3.49-6.54.84-14.28 2.16-21.31-.51-10.67 1.67-21.39-.24-32-.7-9.22-1.81-18.4-1.86-27.66-.58-5.45-1.36-10.88-1.3-16.37.24-3.24-1.57-6.06-2.17-9.14l2.16-.09c.49-14.6 2.29-29.17 1.56-43.8.22-4.33-3.3-7.65-3.44-11.92a80.24 80.24 0 0 0-1.74-11.11c.62-.86 1.25-1.72 1.88-2.57zM882 305.18c3.35.1-1.55 2.94 0 0zM750 306c3.4.15-1.59 2.92 0 0z" fill="#101010"/>
  <path d="M181 311.35a42.67 42.67 0 0 1 9.17-4.69c4.59 6.56 9.15 13.5 10.54 21.53 2.19 6.07 2.82 12.48 3.95 18.79.42 5.68 2.2 11.25 1.59 17-.85 7.53.66 15 .23 22.57 1 22.13-2.6 44.07-3.77 66.12-2.65 8.5-.86 18-5 26-1.25 3.07-4.58 4.25-7.48 5.16-6.83-1.51-8.21-9.26-10.08-14.89q-3-11.75-5.45-23.61c-1.87-15.18-.32-30.5-1.51-45.72-.72-5.18-.41-10.43-1-15.63 0-4.57.46-9.14-.36-13.68l2.64-1.37c-.55-5.67-1.57-11.33-1.38-17q.79-9.21 1.72-18.39c1.69-5.14 1.91-10.62 4.07-15.63a39.51 39.51 0 0 0 4.24 3.49c1.92-3.47-1.67-6.61-2.15-10.05zM174.25 313.55c1.48-.31 1.38 2.23.47 2.83-1.5.29-1.4-2.23-.47-2.83zM172.2 317.55c2.07-1.09 3 3.12.75 3.3-1.5-.17-1.65-2.41-.75-3.3z" fill="#fff"/>
  <path d="M460.2 425.24c3.35.13-1.54 2.93 0 0zM339.31 446c1.63-.47 2.21.09 1.74 1.7q-2.44.69-1.74-1.7z" fill="#101010"/>
  <path d="M838.14 446.66a16 16 0 0 1 1.41 5.26c-2-1-1.44-3.48-1.41-5.26z" fill="#fff"/>
  <path d="M295.19 465c2.94-1.57.12 3.34 0 0zM252.78 470.36c1.52.07 3.29.48 3.25 2.38-1.22 0-2.44.06-3.65.07l.4-2.45zM626.51 481c3-1.52.15 3.31 0 0zM621.43 488c.27-2-.87-4.87 1.53-5.81 1 .68 2 1.4 2.93 2.16a31.29 31.29 0 0 0-.26 6.63c.64 12.39-2.51 24.71-.92 37.08.32 3.9-.8 7.79-.28 11.69a147.67 147.67 0 0 0 3 15.59c3.51-2.5 5.88-6.26 8-10 1.86-3.26 4.05-6.44 5-10.12.76-3.13 4-4.82 4.84-7.91 1.36-3.47.81-7.36 2.31-10.79 3.1-4.37 7.35-8.7 7.15-14.43 1.42-1.72 4.09-1.41 6.12-1.81-.22 3.58-2.17 6.64-3.47 9.89-1.07 2.75-3.58 4.57-4.77 7.26-2.43 4.09-1.17 9.34-3.9 13.29a64.49 64.49 0 0 0-3.28 6c-3.8 5.54-6.11 12-10.54 17.14a36 36 0 0 0-6.62 9.94c2.32 3.71 3.46 7.92 4.78 12 4 5.73 4.22 13 5.63 19.61 1.32 3.81 2.25 7.73 3.57 11.55a35.41 35.41 0 0 0 2.36 11.29c2.45 7.09 3.58 14.6 6.54 21.53 2.09 4.62 3 9.66 4.8 14.38 1 8.15 5.4 15.4 6.22 23.58.4 4.26 1.52 8.39 2.19 12.61-3.3 1.57-3.92-2.64-4.74-4.87-1.35-6.41-2.33-13-5.2-19-2.63-8.91-4.26-18.2-8.34-26.63-2.35-5.09-1.87-11.48-5.34-16 .14-4.57-2.07-8.75-2.63-13.22-.64-6.1-3.93-11.57-4.47-17.69-.72-6-3-11.57-5.2-17.12-1.94 10 .77 20.07.63 30.14a66.55 66.55 0 0 0 .87 8.9c.47 3.35-1.69 6.52-.78 9.86a24.94 24.94 0 0 1 .17 12.55c-.94 8.17.82 16.41-.19 24.58-.3 8.73.57 17.94-3 26.14-.68 2.34-3.68 1.4-5.48 1.87a17.84 17.84 0 0 1 1.58-3.8c1.84-3.14 1-7 2.45-10.23a322.73 322.73 0 0 0 .2-33.93c-.18-5.56 1.59-11.19 0-16.65-1.18-3.44.3-6.87.56-10.3-.83-9.7-.86-19.44-1.92-29.11-.59-3.75.91-7.53.2-11.25a29.6 29.6 0 0 1-3.53-2.59c.1-3.61 3.57-6.23 3.27-9.91-.25-9.14-3.57-17.9-3.79-27.05 1.24-4.92.09-10 .13-15-.59-4.36.79-8.65.93-13-.33-6.38 1.23-12.7.69-19.08zM807.45 488.58c5.29-1.61 10.66.64 15.69 2.07 4.81-.72 9.13 2 13.85 2.57 1.9.58 4.16-.38 5.82.91 3 2 6.75 2.41 10 4.07 2.74 1 4.53 3.76 7.51 4.27 3.5.49 6 3.31 9.46 4 3.68 1.16 7.37 2.92 9.79 6 2.49 2.91 6.18 4.39 8.52 7.47a27.58 27.58 0 0 0 8.57 8.43c3.79 2.71 1.85 9.14 6.28 11-1.81 5 2.67 9.31 3.92 13.94 2.21 11.4 7.09 22.12 8.49 33.7 0 4.74-1.07 9.58.49 14.21 1.38 3.52.77 7.43 1.95 11 2.06 6.4.91 13.23-.06 19.73-1.15 6.36.8 13-1.87 19.09.42.43 1.24 1.28 1.66 1.7l-2.31.59c-2 5.27-5.72 9.51-8.58 14.27a100.83 100.83 0 0 1-17.73 16.17c-9.05 5.71-18.24 11.18-27.51 16.49-2.92 1.19-6.13 3.76-9.17 1.47 1.23-8.88.44-17.88.63-26.82.72-7.64 1.62-15.27 2-22.94.28-4-.61-8-.11-11.95-.25-5.1-.9-10.24.08-15.31.11-6.8.42-13.59.71-20.38 1.1-8.49 3-16.86 3.46-25.43 0-4.4 2.29-8.54 1.63-13-.34-4.27-1.25-8.57-.41-12.84 1.43-8 .67-16.21 2-24.24-.21-6.49-.5-13-.36-19.51a92.27 92.27 0 0 0-20.29-11c-8.79-2.83-18.72-1.45-26.92-6.17-3-1.07-6.24-.47-9.32-.84-1.26-1.7.89-2.31 2.14-2.83zM476.71 488.92c4.25-.25 4.54 4.62 5.85 7.48 2 3.5 1 7.62 1.6 11.41 2 15.35-.18 30.74-.13 46.11 1.41 7.29.82 14.78 2.36 22-.7 8-2.55 16-1.05 24a39.17 39.17 0 0 1 .08 14.6c-.05 10.13-1 20.35.5 30.42-.81 6.88-.75 13.82-1.42 20.71-2.29 8.43-4.38 17.14-9.16 24.58-2.59 4.07-4.66 8.54-8.12 12-5.6 5.63-15.22 5.77-21.22.77-6.34-5.72-10.11-13.78-11.89-22-.47-2.31-1.82-4.3-2.45-6.55-1.35-7-2.73-13.93-4.3-20.85-3.43-8.32-2.75-17.45-4.72-26.1-1.22-11.39-5.11-22.57-3.62-34.15.48-10.4 1.91-20.92.18-31.27-.81-7-1.58-14.13-.26-21.12 1-5.39.26-10.86-.72-16.19-.92-4.65-1-9.61-3.38-13.82 1.56-2 3.83-1.51 6-.9.13 7.79 1.65 15.48 3.3 23.08-.54 6.57-1.65 13.12-1.58 19.73.41 3.84.67 7.71 1.28 11.54 2 13.77-1.69 27.61-.19 41.39 2.2 12.55 4.78 25 5.82 37.75a259.16 259.16 0 0 1 6.53 29.2c2.76 6.55 3.76 13.78 7.24 20.05 3 3.73 5.77 8.43 10.84 9.4 3.18 1.42 6.11-1 8.85-2.31 3-1.58 3-5.46 5.5-7.51a5.69 5.69 0 0 0 2.12-4.93c2.78-.81 3.59-3.81 4.55-6.19 5.44-11.6 5.55-24.7 6.08-37.24a191.3 191.3 0 0 1 .39-35.09c.27-6.66-2-13.2-1.17-19.86 0-6.11 2.31-12.2.67-18.27-1-4.08.11-8.35-.83-12.47-1.71-12.06.65-24.21.15-36.31.25-7.24-.87-14.42-1.08-21.65-1.06-3.77-1.87-7.6-2.63-11.44zM733.28 491.16c3.34.12-1.54 2.92 0 0z" fill="#101010"/>
  <path d="M483.17 494.18c3.34.09-1.47 3 0 0zM735.78 495.4l2.18.51c2.33 6.32 1.74 13.14 2.6 19.72 1.66.28 3.32.57 5 .91-1 5.89-1 11.89-2.07 17.77-1.35 7.42-1.23 15-2.55 22.46-.94 5.49-.93 11.08-1.54 16.61-.43 2.32.79 4.44 1.58 6.54 3.2 8 2.89 16.73 5.37 24.87.54 5.37 1 10.78 1.71 16.15.06 9 2.76 18 .91 27.06-.41 11.21-.6 22.55-3.73 33.41a68.64 68.64 0 0 0-.83 19.62c.16 6.66 0 13.33-.08 20 .65 5.88-.86 11.75-.08 17.64 1.6 9.53.29 19.25-1.45 28.66a16.21 16.21 0 0 1-4.67-1.08 21.14 21.14 0 0 0 1.8-6.24c.29-5.66 1.19-11.32.67-17a73.19 73.19 0 0 1-.29-18c-.63-9.09.76-18.22-.23-27.29-1.42 2.78-2.19 5.85-3.76 8.56-2 1.32-4.11 3-6.64 2.49-.59-3.26-.89-6.55-1.42-9.8-2.17 3-4.62 6-8.33 7.2-2.13.49-.46 2.39 0 3.56-2.67-.8-3.39 2.55-5 4l-2.2-1.8c0-3.28.85-6.47 1.13-9.72-.25-1.79-1.25-3.31-1.93-4.94 0 4.6-.06 9.2-.27 13.8-.3 6.23 1.19 12.6-.51 18.73l-3.22-.23c-.65-4.27 0-8.62-.47-12.92a5.7 5.7 0 0 1-4.72-5.33c-.74-8.17-2.06-16.28-2.84-24.44-1.38 3.58-1.37 7.51-2.84 11.06-1.66 4.2-2.27 8.69-3.33 13-1.19-.44-3.39-.14-3.5-1.88.29-7.33 1.3-14.63 1.28-22 0-3.22 1-6.53.06-9.68-2.16-4.86-1.32-10.36-3.11-15.34-.42 4.32.12 8.66-.39 13-1.06 5.94.75 12-.41 17.9-1.16 7.16-.61 14.42-1.51 21.59a53.33 53.33 0 0 0-1.43 15.93c-.94.73-1.86 1.47-2.77 2.22l-2.73-.53c.11-2.7.4-5.39.36-8.09-1.78-15.65.75-31.37 1.24-47 2.12-7.73.37-15.64-.22-23.44-1.74-17.2-.05-34.52-2.08-51.7.29-11.7-1.35-23.37-3.71-34.78a167.58 167.58 0 0 0-1.1-30c-.48-6.87 1.06-13.66.73-20.52.69-4.56-2.16-8.63-2.06-13.13.66-1.83 3.62-2 4.33-.11 1.27 3.18 2.47 6.45 3.43 9.75-1.27 6.49.42 13 1.21 19.41 1.78 8.79 3.43 17.67 3.8 26.64a27.27 27.27 0 0 1 1.54-3.39c1.25-.82 2.83 0 4.22 0 .34-5.57 1.61-11.08 1.41-16.69-.14-4.57.1-9.14.16-13.71 1.59-3.52 3.07-7.1 4.51-10.7 4.59 1.87 6.81 7.08 7.81 11.64.53 2.53 2.06 4.65 3 7 .66 2.33 1 4.76 1.82 7.05 1.75-5.65 1.66-11.66 3.12-17.38 1.15-1.88 3.26-1.49 5-.8-.3 4.06-1.85 7.91-2.15 12-.36 4.55-1.48 9-2.23 13.47-.77 3.93.78 7.78 1.74 11.54a79.43 79.43 0 0 1 5.75-19.21 13.34 13.34 0 0 1 4.14-5 57.77 57.77 0 0 1-.7-11.9c1.28-.17 2.57-.33 3.87-.47a55.71 55.71 0 0 1 1.26 5.44c1.42.36 2.82.82 4.24 1.26-.68 3.87-.46 7.8-.4 11.7.12 3.55 0 7.23 1.36 10.59.63-5.95-.27-12 1.17-17.83.07-5.9.62-11.77.89-17.66-.13-6.91-.88-13.81-.9-20.73zM546.43 503.43c2.77-2.21 5.65-5.6 9.58-4.88a21.13 21.13 0 0 1 7.31 2c4.23 2.14 8.84 3.65 12.63 6.57a53.23 53.23 0 0 1 11.24 12.15c1.62 7.37 5.2 15.36 1.59 22.71-2-2.58-1.7-6-2.63-9-.63-8.29-4.9-16.63-12-21.13-5.46-5-12.77-7.57-19.93-8.88-4.23 3.85-9 7.1-13 11.19-2.6 3.43-5.7 6.64-7.17 10.76-4 6.57-3.67 14.69-3.41 22.11a30.24 30.24 0 0 0 .73 8.42 232.75 232.75 0 0 1 1 28.56c.64 7.36-.6 14.7.1 22-.14 5.89 2.45 11.32 3.59 17a181.69 181.69 0 0 0 4 24.07c1.12 8 5.44 15 8.23 22.41 2.13 7 5.87 14 12.16 18.16 5.42 1.16 11.43.28 15.15-4.2-3.65-3-8.42-6-8.8-11.16 2.71-.38 3.38 2.52 5 4.05a16.78 16.78 0 0 0 7.06 4.36c6.3-9.74 11.11-20.62 12.72-32.18a125.24 125.24 0 0 0 2.42-25.79c2.06-1 3.9 1.37 3.53 3.29.38 14.65-2.47 29.35-7.31 43.12-3.44 6.71-7.27 13.21-10.39 20.09-5.12-1.4-8.75 3.78-13.74 3.13-2-.06-4 0-6 0-6.82-2.7-10.68-9.37-13.94-15.54-1.16-3.63-3.36-6.81-4.1-10.6-2.38-5.4-5-10.73-6.64-16.42-1-6.29-1.47-12.63-2.89-18.82.25-9-4.88-17-4.56-26-1.7-7 1.17-14-.13-21 .28-7.74.55-15.55-.68-23.23a89.5 89.5 0 0 1 .4-32.35 77.62 77.62 0 0 1 6-11.94c3.72-4.9 8.66-8.66 12.93-13zM764.23 509.15a4.78 4.78 0 0 1 5.33 1.26A34.65 34.65 0 0 0 792 520.63c3.27-.25 5.33 3.78 8.72 2.89 2.87 0 5.24-1.49 7.59-3 3.34.12 7.52-1.38 10 1.5 2.49-.38 5.76-2.28 7.71.21 1.52 1-.54 3.54-2 3a101 101 0 0 0-20.11 2.81c-6.56 0-12.36-3.5-18.8-4.16-5.75-1-10.62-4.3-15.48-7.29 0 2.16 1.21 3.87 2.63 5.4-1.08 1.48-2.7 2.87-2.37 4.91.46 7.08-1.78 13.89-2.17 20.91-.72 7-3.23 14-2.14 21.17.5 9.68-2 19.27-1.14 28.95.5 4.34-.61 8.65-.14 13 0 6-1.36 12-.6 18 .63 4.11-.84 8.26 0 12.35 5.49 8.23 16.12 8.82 24.88 10.83a21.17 21.17 0 0 0 15.84-1.81c.45-2.05 1-4.15 2.65-5.57 1.24 2.69 2.17 6.66-.43 8.85-1.92 2.38-5.31 2.19-8 3.07-7.3 1.91-14.48-1.35-21.61-2.49a31.39 31.39 0 0 1-12.73-5.44c1.42 15.11.49 30.3 1.7 45.42.3 1.39-.07 3.6 1.74 4 4.1 1.44 8.47 1.94 12.54 3.49 5.62 2.68 12 2.35 18.08 3 3.53 1 8.58 2.06 11.12-1.39 2.12-2.34 3.19-5.37 4.84-8 2.86 2.92 2 7.52-.86 10.09-3.81 4.6-10.43 4.9-15.89 3.87-5.9-1.38-12.24-.44-17.88-3s-12-2.78-17.5-5.5c-2.47-15.18-.92-30.63-2.31-45.9-.57-4 .28-8.71-2.56-12 2.37-3.48 1.07-8 1.77-11.92-.9-6.61.49-13.21.46-19.81-.86-4.39.49-8.77.24-13.17-.81-11 1.7-22 .91-33 .32-7.33 2.5-14.44 2.81-21.78.16-2.79 1.26-5.4 1.63-8.15.76-5.33.74-10.74 1.07-16.1-.56-3.3-2.12-6.41-2-9.82z" fill="#101010"/>
  <path d="M866.31 510.18c3 1.3 6.12 2.65 8.55 5 3.46 3.2 7.57 5.73 10.39 9.6 2.57 3.69 7.46 5.43 9 9.85a247.11 247.11 0 0 1 11.22 32.72c1.8 5.19 2.09 10.76 4.16 15.88.78 4.56.52 9.23.39 13.84.66 5.88 2.18 11.63 3.36 17.41 2.45 5.65 0 11.65-.27 17.45-.85 7.12.26 14.62-3 21.26-1.08 3.62-4.4 5.78-5.82 9.18-1.21 2.4-3.87 3.57-5.19 5.9a25.29 25.29 0 0 1-9.56 8.37 22.67 22.67 0 0 1-12.8 8.11c-5 5.51-12.3 7.91-18.18 12.3-.46-7.89-1.62-15.76-1-23.7 1.1-9 2.56-18.13 1.77-27.24.34-7.71-.9-15.45.41-23.12 0-15.47 2.38-30.76 4.11-46.08 2.26-8.51-.18-17.28 1.16-25.87.93-6.32-.06-12.79 1.47-19 .36-7.26-.63-14.53-.16-21.8z" fill="#fff"/>
  <path d="M157.53 517.5a23.08 23.08 0 0 1 13.94-4.25c-.19 3.18 1.57 6 2.45 8.94 1.76 4.6 1.81 9.64 3.68 14.23 2.36 6 3.13 12.5 4.15 18.85.1 12.17.29 24.39-.91 36.53-1.28 6.22-.6 12.61-1.42 18.89-.85 5.91.12 11.89-.58 17.82-.78 10-3.87 19.54-4.76 29.49-.65 6.29 1.38 12.64-.13 18.9-.45 5.17-3.06 9.79-3.88 14.87-3 5.13-4.67 11.07-8.48 15.73-3 3-5.67 6.65-9.92 7.93-4.59 1.05-9.82.6-13.56-2.52-6-4.71-8.22-12.42-10.35-19.42-1-7.27-4.48-14-4.49-21.46-3-23-1.09-46.37 2.62-69.21 1.11-6.5 1.43-13.14 3.3-19.5 1.44-4.63 1.06-9.62 3-14.14 4.7-11.39 5.62-23.85 9.4-35.51 3.18-3.21 5.4-7.35 9.2-9.91 2.54-1.77 4.42-4.28 6.77-6.26zM359.76 514.2l1.15-1.89c6.22 2.42 12.81-.58 19.17.78 2.7.33 5.16 1.64 7.87 1.93 5.31.64 10.43 2.53 15.83 2.31 3.9-.21 3.53 6.33.25 7.1l-.8-3.36c-5.56 1.34-10.74-1.54-16.21-1.93-4.38-.49-8.5-2.71-13-2.27-3.06.25-6.11.69-9.18.65.13 3.5-.23 7 .47 10.51.6 9-.91 18-.23 27 .65 8.29 0 16.68 1.6 24.88 1.12 5.63 1 11.39 1.44 17.09 3 .16 5.91.49 8.87.37 3.91-.06 7-2.93 10.87-3.35 6.51-1.51 13.51-.33 19.72-3.22 2.78-1 7.59-1.75 8.7 1.91-4.89.23-8.86 3.46-13.67 3.92-4.21 1.14-8.62.25-12.86 1.21-4.12.46-7.54 3.39-11.74 3.48-3.21.13-6.43 0-9.65 0a189.93 189.93 0 0 1 .68 29.79c.73 8.73 2.24 17.39 2.72 26.15a166.85 166.85 0 0 1 3 24.71c-.66 7.68-1.65 15.38-1.23 23.1-.19 2.71-.56 5.54 1.1 7.92l-3.06 4c-.84-.36-1.65-.76-2.43-1.18-.8-4.9.36-9.82 0-14.73-.17-8.36 1.78-16.68.62-25-.58-5.19-.07-10.63-2.16-15.53-.83-3.69 0-7.53-.73-11.23-1.24-5.33-1.07-10.83-2-16.2 0-10.57.48-21.18-.94-31.68-1.41-1-3.66-2-3-4.16.91-2.4 2.46-4.6 2.51-7.28-.4-5.68-1.33-11.32-2.29-16.92-.06-12-1.29-24-.17-36-.64-7.57.09-15.24-1.34-22.73zM203.25 518.42a26.88 26.88 0 0 1 2.59-1.64c3.55 2.49 7.82 3 12 3.23 7.81 2.19 15.55 5.09 22.29 9.68 9.76 3.61 19.32 8.35 30 8.57 0 1.54 0 3.1-.08 4.66-5.3-3-11.85-.71-17.07-3.73a90.25 90.25 0 0 0-12.76-4.49c-3.35-.9-5.85-3.48-8.92-5-7.24-2.93-14.46-6.76-22.54-6.15-1.65 6.36-1.42 12.89-1.85 19.4 0 3.33.9 6.62.65 10-.71 6.66.71 13.34-.1 20-2 11.74-1.84 23.69-3.22 35.5a12.52 12.52 0 0 1 7.84 1.11c5.16.31 10.6-1.36 15.49 1 5.41 2.54 12.87 4.46 17.53-.51 1.68 1.21 6.31.76 5.45 3.58-3 1-5.92 2-8.86 3.08-6.4 1.79-12.87-.72-18.74-3.1a160.57 160.57 0 0 0-18.73.61c.32 8.51-.43 17.14 1.34 25.53.76 13.4 1.39 26.88.1 40.27a116.79 116.79 0 0 0 1.24 24.5l2.56-.47c-.08 1.25-.16 2.5-.25 3.76-2 .81-4 2.12-6.26 1.54-.65-11.12-2.37-22.26-1.39-33.43.72-6.64.31-13.31.41-20-.57-5.13.45-10.48-1.43-15.4-.65-1.8-.16-3.7-.09-5.54.14-6.55-.82-13.07-.72-19.62a10.34 10.34 0 0 1-4.31-4.4c1.48-.45 3-.87 4.45-1.31.33-6.81 2-13.67.79-20.47A20.07 20.07 0 0 0 202 582c1-8.3 1.68-16.69.8-25-.44-2.68.74-5.31.25-8-1.52-8.33.26-16.74.57-25.08 0-1.84-.84-3.69-.41-5.5z" fill="#101010"/>
  <path d="M161.68 519.74a58.89 58.89 0 0 1 5.73-1.52 31.68 31.68 0 0 1 4.05 11.5c1.48 7.58 4.51 14.78 5.4 22.48 1.36 15.62.57 31.31-1.22 46.84 0 7-1.28 14-1 21 .23 3-1.35 5.6-2.13 8.37-1.55 3.89-1.23 8.15-2.08 12.19a16.56 16.56 0 0 1-1.89 1.29l1.55 1c1.05 6.42-1.3 12.68-.84 19.1.14 3.74-1.61 7.25-1.5 11-.23 2.39 1.36 4.55 1.07 7-.37 2.89-2 5.39-2.86 8.15-1.59 5.11-3.58 10.29-7.3 14.24-1 4.12-4.8 6.29-7.84 8.83-5.11 1.74-11-1-13.37-5.73-1.62-4-3.15-8-4.9-11.94-1.2-5.56-2.63-11.07-4.13-16.56a244.58 244.58 0 0 1-2.12-31 387.9 387.9 0 0 1 4.25-45.64 31.48 31.48 0 0 1 1.78-8.66c-.07-4.49 1.72-8.66 2.42-13 .81-6.71 3.49-13 5.24-19.45 1.09-6.12 2.72-12.13 4.11-18.19 1-2.9 2.26-6.18 5.3-7.41-.45-2.88 2.26-4.45 4.08-6.15 2.93-2.37 5-5.67 8.21-7.7zM699.36 523.59c2.94 9.13 6.19 18.22 8.64 27.47-1 6.57-1.84 13.17-2.31 19.82.14 1.62-1.52 2.31-2.46 3.31.41 4.76-.09 9.55.46 14.32A83.82 83.82 0 0 1 704 608c-.05 11.6-.11 23.21-.52 34.79-2-7.76-1.62-15.83-2.11-23.76.9-15.8-1.46-31.67.16-47.47 0-6.86-.62-13.7-.5-20.57.23-6.43-2.73-12.5-2.31-18.94a74.14 74.14 0 0 0 .61-8.42zM722 547.94a15 15 0 0 1 2.61-6.4c1.06 8.77 2.3 17.57 1.59 26.43.27 12.74-1.22 25.37-1.62 38.08-1-10.12-3.5-20-4.48-30.13-.29-3.91-2.91-7.55-1.83-11.53 1.15-5.51 2.18-11 3.73-16.45zM679.37 546.86c1.49 5.55 1.74 11.35 2.09 17.06a32.84 32.84 0 0 1-.65 10.13c-.22-2.8 0-5.67-1-8.34 0-6.29.1-12.58-.42-18.85z" fill="#fff"/>
  <path d="M32.74 555.48c1.55.24 3.11.43 4.67.67a9.78 9.78 0 0 1-.7 3.34c-2.55.81-3.2-2.31-4-4z" fill="#101010"/>
  <path d="M733.45 561.73c1.55 6.36 1.41 12.94.65 19.4a69.3 69.3 0 0 1-.65-19.4zM711.37 562.56c1.18 2.63 2.44 5.48 1.82 8.44-1.36 10.34-2.54 20.69-4.2 31 .08-5.33.15-10.66.35-16 0-7.86 1.53-15.6 2-23.42zM687 563.69c2.43.53 1.76 3.43 2.19 5.28.21 6.4-1 12.76-1.66 19.1-.8-8.1-2.32-16.29-.53-24.38zM714.9 590.77c.55-3.65.46-7.4 1.66-10.92.15 2.54-.47 5.21.7 7.61a247.9 247.9 0 0 1 5 32.64c1 5.6.19 11.26 0 16.89.57 10.13-4.69 19.18-6.81 28.84-1.16.28-2.31.54-3.45.83l2 1.4c-.87 1.74-1.68 3.51-2.63 5.2-.24-9.11-.21-18.25-1.2-27.32-.25-5.6-1.61-11.27-.25-16.81 2.55-12.67 2.37-25.7 4.95-38.36zM696.44 580.77c.45 5.39.42 10.83.62 16.24-.11 5.4.59 10.9-.66 16.22-.54-10.8-.36-21.66 0-32.46zM737.14 612c-.9-8.74-.91-17.78 1.36-26.31 1.61 8.47 2.69 17 4.16 25.54.79 6.3 1 12.69 2.12 19 1.18 8.24.18 16.55-.18 24.81-.42 3.68-.12 7.43-.86 11.08-3.53-17.85-3.52-36.15-6.6-54.07zM685.6 621.06c-1.17-11.29-3.32-22.58-2.61-34a120.38 120.38 0 0 1 2.61 34zM733.33 655c.78-7.39.15-15 2.2-22.19 1.27 10.31 1.49 20.74 3.4 31 1.08 5.34.35 10.81.84 16.21a26.7 26.7 0 0 1-3.28 15.42c-1.42 2.51-1.77 5.47-3.35 7.91-.73-5.41-1.84-10.86-1.45-16.34 1.29-10.62.87-21.34 1.64-32zM696 640.91c2.24 5.41 2 11.39 2.26 17.13.13 5.91 1.28 11.91-.42 17.72-4.12-7.28-2.84-15.76-2.72-23.76a89.06 89.06 0 0 1 .84-11.07zM724.39 680a95.5 95.5 0 0 1 1.73-22.13c.79 4.62 1.38 9.37.63 14-.75 2.71-1.7 5.36-2.36 8.09zM711.66 678.95c4.17-3.61 5.89-9 8.18-13.86-.16 8.66-2.81 17-3.33 25.59l-3.09.23a34.78 34.78 0 0 1-1.76-12zM702.72 670.08c1.59 5.68 5.11 11 3.78 17.19a5.68 5.68 0 0 1-1.47-4l-1.61.2c.52-4.48-.33-9-.7-13.4zM704.22 691.07c4.25 3.54 3 9.39 2.12 14.14-1.05-4.67-1-9.49-2.12-14.14zM719.32 700.65c.27-2.77.06-5.73 1.42-8.25.23 3 .06 6.08.09 9.13l-1.51-.88z" fill="#fff"/>
  <path d="M258.65 706.16c1.52-.51 3-1.05 4.55-1.57 1 10.21-1.16 20.53.57 30.74-.35 5.3 1.7 10.26 1.63 15.52 1.16 10 2 20.09 3.73 30 4.7 12.25 2.08 25.63 5 38.2 2.07 11.51 2.27 23.22 2.54 34.88.59 9.38 2.48 18.6 3.29 28 0 6 1.34 11.84 1.35 17.82.33 5.42-.24 10.89.69 16.29 1.73 8.88 3.28 17.85 6.34 26.4 1.05 4.12 2.58 8.25 2.35 12.58-.41 5.29 4.22 9.59 3.24 15 .16 2-2.63 2.09-3.37.55a66.06 66.06 0 0 0-2.88-9.25c-1.64-3.24-.9-7-1.7-10.38-1-6-3.92-11.39-4.74-17.38-2.26-5.17-2-10.94-3.42-16.37l-1.89.61c2.76-3.77.55-8.52 1-12.77.6-8.09-1.31-16-1.39-24.1-1.05-8.62-2.33-17.2-3.27-25.82 0-12.22-.46-24.5-2.86-36.51-1-4.3-.32-8.77-1.14-13.09-.8-4.53.09-9.18-.92-13.67-.71-3.23-1.5-6.44-2.41-9.62-2.34-9.92-2.2-20.19-4-30.2-.55-5.69-1.44-11.34-1.7-17.06-1.58 2.78-3.08 5.63-3.16 8.91-3.4 10.66-3.68 22.07-7.48 32.61-.89 4.34-1.58 8.73-2.11 13.14a117.32 117.32 0 0 0-3.63 13.18c-1.44 7.16-4.58 13.86-5.89 21.05-4.59 10.35-6.11 21.69-9.81 32.33-1.25 4.8-2 9.75-3.75 14.42-2.49 10.81-5.29 21.57-7.12 32.53-1.1 5.58-1.95 11.21-3.25 16.75-1.87 4.62-5.06 8.53-7.84 12.61-3.83-3.36-2.17-9-2.86-13.55-1-.74-2-1.45-3-2.16 3-7.17 1.58-15 1.08-22.5-1.38-6.34-1.73-12.82-2.53-19.24.56-5.08-1.51-9.94-1.13-15 .31-7.06-1.17-14-1.82-21-.42-4.63-3.05-8.63-3.87-13.16-1.29-4.7-.72-9.66-1.71-14.41-1.53-7.5-1.15-15.27-3.12-22.69-.44-5.3-1.92-10.46-2.16-15.78-.23-4.13-2.55-7.84-2.41-12a29.93 29.93 0 0 0-4-14.36c-.27 5.79-.51 11.59-.88 17.39 1 11-.26 22-.7 33 .45 14.27 3.1 28.64.85 42.86-.43 4.39-.65 8.79-1 13.19-.21 4-1.8 7.83-2 11.87-.11 7.3-.88 14.59-.49 21.9 1.14 11.69-2 23.15-2.92 34.75a61.16 61.16 0 0 0-2.23 20.84c1-.33 2.08-.62 3.13-.88 0 3.6-2.06 7.12-.6 10.68 1.28 2.23-1.27 4-3.26 3-1.25-2.53-1.85-5.32-2.84-7.95-2.79-15.57 3.36-30.74 3.88-46.22 1.71-7.16.14-14.5.57-21.74.41-7.93 0-16 2.2-23.72.76-7.87 1.21-15.78 2.16-23.64 0-9.7-1-19.39-1.92-29-.61-5.36.45-10.65.56-16 1-8.61.59-17.28.3-25.91.82-7.65.53-15.37 1.53-23 .14-2.23-.15-4.44-.16-6.66l3.74-.34c1.28 3.61 4 6.83 3.92 10.8.37 3.3 3.65 5.66 3.09 9.18 1.18 5.72.54 11.9 3.39 17.19.24 8 2.23 15.9 3.81 23.74.77 10.39 2.5 20.67 3.48 31 .27 4.25 2.83 7.85 3.66 12 .77 3.88.86 7.86 1.51 11.77 1.37 7.41-.11 15 1.4 22.44.49 14.08 4.17 27.9 3.75 42 1.38.35 2.78.64 4.18.93.39-1.85.8-3.68 1.29-5.48l-1.78-1.23c.82-.5 1.65-1 2.48-1.47 1.2-6.74 2-13.56 4.14-20.08a31.53 31.53 0 0 0 1.4-9c2.89-7.41 4.41-15.3 6.62-22.93 1.71-4.72 2.5-9.69 3.74-14.53 4.88-16.11 10.76-32 14.11-48.48 1.08-5.82 1.58-11.8 3.71-17.36 2.35-12.44 4.47-25 7.79-37.21 1.56-3.54.65-7.54 1.85-11.16.69-2.27.25-4.71 1-7 1-3.32 2.39-6.59 2.49-10.11zM472.43 721.6c2.48-.53 5.61-1.89 7.72.22A114 114 0 0 1 492.29 732c-.36 5.6 6.08 9.17 5 15 1.84 8.9 1.54 18.66 7 26.42.54 11.52.56 23.12 2.24 34.57 1.16 7.72-.66 15.62 1.09 23.28.44 3.52 2.09 6.84 1.87 10.45-1.29-.78-3-1.29-3.46-2.89-2.22-5.31-2.94-11.15-3.24-16.85.68-9.72-2-19.25-2.15-28.94-.59-6.53.47-13.37-2.25-19.54-1.37-5.12-4-10-3.9-15.38-.18-4.21-2.15-8.06-2.51-12.23-.17-4.21-3-7.53-4.75-11.19a49 49 0 0 0-11.26-9.63c-5.6 1.31-9.73 5.37-14.31 8.55a21.82 21.82 0 0 0-8 19.31c-1.23 6.73 1 13.3 1.44 20 .51 7.94 2.79 15.6 4.83 23.25.14 1.31 1.43 1.74 2.44 2.27l-1.15.93c.57 4.84 2.53 9.38 3.45 14.16.54 3.58 3 6.44 3.89 9.89 2.06 8.06 9.27 13.37 12.11 21.06a195.57 195.57 0 0 0 9.41 17.51c1.3 2.2 1.45 4.92 2.92 7.05 1.73 2.27 1.15 5.3 1.83 7.92.93 3.75 1.91 7.49 2.86 11.24.94 8.2-1.24 16.3-3.49 24.11-.7 2.17-.62 4.47-.82 6.72-.87 3.61-2.87 6.81-4.06 10.32a28.57 28.57 0 0 1-11.82 9c-6.74 1-13.6.31-20.3-.71-8.69-2.11-14.41-9.46-21.07-14.8-3-2.95-7.28-5.15-7.48-9.87 2.85-1 5.8-1.84 8.86-1.44-.51 1.55-1.09 3.08-1.66 4.62a9.47 9.47 0 0 0 5.47 3.16c.23 2.42 2.41 3.77 3.95 5.4 4.71 4.21 9.86 9.22 16.64 9.12 6.69.47 15.24 2 20-3.9 4.85-4.43 6.6-11.13 7.46-17.41 2.48-8.94 6-18.48 2.79-27.72-.92-6.46-4.14-12.18-5.59-18.47a118.72 118.72 0 0 0-6.14-11.79 3.46 3.46 0 0 0-2.08-1.6c-1.25-9.74-9.46-16-13.54-24.46a23 23 0 0 0-4.49-10.91c-.53-10.15-5.59-19.26-7.7-29.06-.55-3.87-1.73-7.63-2-11.53-.65-8-3.16-16-1.76-24.08-.66-5 1.09-9.78 2.57-14.48 1.35-3.15 4.22-5.23 6.32-7.84-.19-.93-.39-1.85-.58-2.76.94.49 1.89 1 2.84 1.53 3.16-3.95 7.9-5.85 12.42-7.77zM568.11 725.67l2.56-.27c2.54 4.11 4.76 8.64 5.12 13.54.6 5 1.83 10 1.31 15-1.3 6.58-1 13.32-1.76 20a205 205 0 0 1-1.52 30c.19 12.7-1.42 25.37-1.57 38.07-.22 4.12.93 8.11 1.62 12.13-.12 7.27-1 14.57-.33 21.85.42 5.82-1.53 11.41-2.28 17.12-.46 3.46-2.36 6.57-2.72 10.07-.3 13.35-5.63 26.76-2 40.05l-4.42-.5a21.51 21.51 0 0 1-1.84-3.77c.61-12.68 2.91-25.2 4.11-37.82a195.07 195.07 0 0 0 4.8-22.14c.06-7.35-.21-14.7.16-22.05-.8-6.94-2.42-13.92-1.66-20.95 1.3-11.8 1.56-23.68 2.11-35.52a189.52 189.52 0 0 0 1.1-24.48c-.26-5 1.26-10 .71-15-.69-4.52 1.7-8.85 1-13.35-.37-3.2-.72-6.39-1.07-9.58-.48-4.3-2.59-8.17-3.45-12.38zM647.21 733.45c5.32-.07 10.39-1.9 15.69-2.1 4.81.57 10.18 1.31 13.5 5.25 4.54 3.06 8.81 6.5 13.44 9.46 8.81 8.79 18.13 19.62 17.34 32.95 0 3.25 1.34 9-3.39 9.42-.17-6.81.15-13.95-2.85-20.27-2.74-5.08-5.58-10.24-9.73-14.32-3.24-2.44-6-5.51-9.46-7.56-5.24-3.38-9.58-8.51-15.79-10.11-5.51-1.59-10.66 2-16.19 1.44-2.29 5-6.8 8.64-8.32 14-2.8 5.35-2.19 11.56-3.26 17.35-.37 9.72-3 19.25-2.61 29 .69 9-1.15 17.94-.22 26.92.84 7.28-.25 14.63.77 21.9.9 6.95.62 14.07 2.4 20.9.65 2.48.61 5.09 1.27 7.58 2.4 7.13 2.94 14.81 6.24 21.64 3.09 6.25 6.19 12.77 11.73 17.28 3.61 3.34 8.56 4.5 12.43 7.49 4.77 1.29 9.9 1.16 14.67 2.73 3.64-2.47 7.46-4.83 10.45-8.1a110.13 110.13 0 0 0 5.84-9.95l-2.08-.77c1.2-.54 3.07-.6 3.3-2.24 1.66-6.37 4.08-12.5 5-19.06 1.78-5.12 2.81-10.57 5.83-15.16.75-1.58 2.59-1.93 4-2.71.75 3.22 1.45 6.67.21 9.89-1.44 4-1 8.37-2.77 12.22a50.38 50.38 0 0 0-3.09 11c-2.1 5.6-5.41 10.64-7.87 16.07-1.05 2.25-1.45 4.86-3.22 6.72-2.09 2.33-3.07 5.33-4.67 8a16.55 16.55 0 0 1-4.76-2.12c-4.46 0-8.76 1-12.11 4.1a6.74 6.74 0 0 1-.45-4.83c-3.38-.64-6.78-1.06-10.14-1.72-4.89-2.25-9.39-5.25-14.18-7.64-2.35-3.07-4.55-6.24-6.91-9.28-2.47-4.34-4.57-8.88-6.65-13.41-2.27-6.15-3-12.73-5.31-18.85-.84-3.9-1.07-7.91-2.19-11.76-.83-10.94-2.22-21.86-2-32.85a148.1 148.1 0 0 1-.24-21c.2-10.33-.48-20.77 1.43-31 1-5.65 1.05-11.4 1.91-17.06-.07-6.89 1.71-14.14 6.32-19.43 2.71-3 4.45-6.74 6.69-10.11zM171.21 733.26c2.94-1.51.09 3.35 0 0zM639.4 740.24c2.92-1.57.12 3.35 0 0zM367.2 744.09c1.61-.67 2.26.88 2.8 2.11a18.62 18.62 0 0 1 .2 6.7 128.6 128.6 0 0 0-3 27.09 134.12 134.12 0 0 0 .3 37.7c1.09 3.35 2.27 6.73 2.19 10.32a163.78 163.78 0 0 0 .48 28c.3 8.68-1.94 17.22-1.79 25.92-.82 7.72 0 15.44.49 23.15a80.72 80.72 0 0 1-4.85 20.13c-1.15 5.15-4.57 9.25-6.71 14-1 2.09-3 3.88-2.9 6.4-2.82 0-5.6 1.35-8.42.6-2.8-.48-4.81-2.65-6.91-4.37-3.6-3-4.39-7.87-6.08-12-1.9-4.38-1.86-9.22-3-13.8-3.17-11.49-1.92-23.67-5.12-35.16-.36-5.42-2.49-10.76-1.26-16.19 1.63-11.29-.72-22.56-1.31-33.82a199.39 199.39 0 0 0-.33-24.81c0-3 .65-6 .24-9-.71-5.43-.28-11-2.26-16.24a79.79 79.79 0 0 0-2.12-10.82c.89-2.57 3.56-1 5 .13 1.22 7.64 3.5 15.15 3.4 23 1.19 5.61-.15 11.32.77 17 .73 5 0 9.95.25 14.94-1 13 2.82 26 1 38.95-.74 6.79.77 13.54 2.2 20.14a174.73 174.73 0 0 1 1.73 18.83c2 9.62 2.79 19.56 6.28 28.83.66 3.39 3.71 5.42 6.19 7.49 1.9 1.49 4.42.89 6.65 1.07 2.32-6.44 7.52-11.5 8.75-18.37 2.45-4.48 3-9.48 3.63-14.47 1.65-4.43-.78-8.93-.16-13.43.4-6.51-.14-13 .84-19.51 0-6.59 2.19-13 1.35-19.63-1.32-9.26-.63-18.65-.67-27.94a108.72 108.72 0 0 1-3.46-33.89c.76-9.66 1.12-19.35 1.88-29 1-3.39 1.49-6.9 2.51-10.29 1.07-3.13-.44-6.71 1.18-9.68z" fill="#101010"/>
  <path d="M570.46 748.95c2.94-1.51.11 3.34 0 0zM688.39 755c3-1.49 0 3.35 0 0zM122 814.17q2.37-.81 1.62 1.68-2.4.77-1.62-1.68z" fill="#101010"/>
  <path d="M206.56 913.81c1 .39 2.08.82 3.12 1.27a20.34 20.34 0 0 1-2.65 7.23c-.32-2.83-.37-5.67-.47-8.5z" fill="#fff"/>
  <path d="M166.23 956.31c3.35.1-1.54 2.92 0 0zM170.11 956.14c3-1.54.15 3.32 0 0z" fill="#101010"/>
</svg>
